<svg xmlns="http://www.w3.org/2000/svg" width="242" fill="none" viewBox="0 0 1250 222"><path fill="#000" d="M22.317 6.838v95.283h35.366v19.229H0V6.838h22.317ZM91.85 6.838V78.77c0 8.754 2.917 14.08 5.492 16.996 3.263 3.95 9.271 7.896 18.196 7.896s14.937-3.95 18.196-7.896c2.575-2.92 5.491-8.242 5.491-16.996V6.838h22.317v70.046c0 10.816-1.717 21.804-8.583 30.558-8.242 10.817-22.663 16.479-37.425 16.479-14.763 0-29.184-5.666-37.425-16.479-6.867-8.754-8.584-19.742-8.584-30.558V6.838H91.85ZM270.738 117.23c-6.867 3.605-15.967 6.696-28.325 6.696-20.088 0-32.275-6.866-41.888-15.966-13.221-12.705-18.371-26.955-18.371-43.78 0-20.775 8.584-35.708 18.371-44.808 11.504-10.817 25.75-15.108 42.063-15.108 8.07 0 17.683 1.375 28.154 7.037v26.096C260.271 25.38 247.221 24.522 243.1 24.522c-23.004 0-37.942 18.883-37.942 40 0 25.408 19.571 39.142 38.8 39.142 10.646 0 20.088-4.634 26.784-12.534v26.096l-.004.004ZM314.1 68.988l-39.317-62.15h26.438l24.55 39.83 24.55-39.83h26.437l-40.346 62.146v52.362h-22.316V68.984l.004.004ZM451.783 6.838v114.508h-22.316V6.838h22.316ZM681.963 26.067v95.283h-22.316V26.067h-25.751V6.837h73.821v19.23h-25.754ZM744.11 51.134h48.412V6.838h22.317v114.508h-22.317V70.359H744.11v50.987h-22.317V6.838h22.317v44.296ZM898.921 26.067h-41.204v25.58h39.488v19.228h-39.488v31.246h41.204v19.229H835.4V6.838h63.521v19.23ZM1016.86 32.933c-6.69-8.93-14.59-9.788-18.709-9.788-12.017 0-15.796 7.555-15.796 13.392 0 2.746.858 5.32 3.604 7.725 2.746 2.575 6.525 3.95 13.733 6.525 8.928 3.092 17.338 6.18 23.178 11.504 5.15 4.633 9.78 12.363 9.78 24.034 0 22.316-16.14 37.595-39.829 37.595-21.116 0-33.479-12.875-39.487-21.633l14.592-13.904c5.491 11.158 15.966 15.279 24.033 15.279 10.131 0 17.681-6.18 17.681-15.796 0-4.12-1.37-7.383-4.46-10.3-4.29-3.95-11.159-6.179-17.684-8.412-6.008-2.063-13.22-4.809-19.058-9.959-3.775-3.262-9.1-9.612-9.1-21.287 0-16.825 11.329-33.65 36.738-33.65 7.214 0 20.774 1.375 32.444 13.392l-11.67 15.279.01.004ZM1074.55 55.25l42.06-48.412h28.15l-48.41 52.875 50.99 61.633h-29.53l-40.69-51.333-2.57 2.575v48.758h-22.32V6.838h22.32V55.25ZM1187.34 68.988l-39.31-62.146h26.43l24.55 39.829 24.55-39.83H1250l-40.35 62.147v52.362h-22.31V68.988ZM472.592 121.804V0L558 77.758l-.187-70.062h22.333v121.121l-85.408-78.738v71.967l-22.142-.242h-.004ZM418.228 176.354v36.67h12.587v6.167h-19.137v-42.837h6.55ZM483.002 197.805c0 12.587-9.441 22.221-22.283 22.221s-22.283-9.634-22.283-22.221c0-12.588 9.441-22.221 22.283-22.221s22.283 9.633 22.283 22.221Zm-6.55 0c0-9.504-6.55-16.184-15.733-16.184s-15.733 6.68-15.733 16.184c0 9.504 6.55 16.183 15.733 16.183s15.733-6.679 15.733-16.183ZM514.381 185.863a6.789 6.789 0 0 0-1.925-2.696c-1.35-1.091-2.763-1.541-4.625-1.541-3.983 0-6.038 2.375-6.038 5.137 0 1.283.45 3.533 4.625 5.2l4.305 1.733c7.9 3.213 10.083 7.709 10.083 12.588 0 8.154-5.779 13.742-13.808 13.742-4.946 0-7.9-1.863-10.084-4.305-2.312-2.57-3.337-5.395-3.596-8.35l6.488-1.412c0 2.121.771 4.108 1.8 5.458 1.221 1.542 3.017 2.571 5.587 2.571 3.984 0 7.063-2.892 7.063-7.192 0-4.3-3.342-6.166-6.167-7.32l-4.108-1.734c-3.533-1.475-8.733-4.433-8.733-10.854 0-5.779 4.495-11.304 12.525-11.304 4.625 0 7.258 1.733 8.604 2.892a14.641 14.641 0 0 1 3.275 4.304l-5.267 3.083h-.004ZM582.007 208.85h-18.304l-4.687 10.341h-7.063l21.321-45.341 20.296 45.341h-7.063l-4.496-10.341h-.004Zm-2.633-6.167-6.358-14.513-6.617 14.513h12.975ZM604.586 219.192v-45.725l31.083 32.562v-29.671h6.55v45.471l-31.083-32.558V219.2h-6.55v-.008ZM680.22 196.909h17.663v.321c0 7.32-2.184 13.295-6.359 17.341-4.433 4.304-9.695 5.459-14.579 5.459-6.229 0-10.662-1.8-14.579-5.846-4.175-4.304-6.358-10.017-6.358-16.184 0-6.679 2.696-12.458 6.229-15.991 3.662-3.725 9.504-6.421 16.121-6.421 3.854 0 7.833.833 11.175 2.696 3.533 1.991 5.716 4.496 6.937 6.421l-5.2 3.662c-1.283-1.8-3.212-3.725-5.266-4.879-2.375-1.413-4.946-1.863-7.58-1.863-5.587 0-9.183 2.313-11.304 4.434-2.825 2.825-4.558 7.387-4.558 12.008 0 4.304 1.604 8.604 4.433 11.625 2.954 3.146 6.617 4.304 10.725 4.304 3.725 0 6.809-1.091 9.571-3.787 2.375-2.313 3.338-4.817 3.596-7.259h-10.663v-6.037l-.004-.004ZM735.161 182.522h-17.084v10.854h16.571v6.167h-16.571v13.487h17.084v6.167h-23.634v-42.838h23.634v6.167-.004ZM756.052 176.354v36.67h12.587v6.167h-19.137v-42.837h6.55ZM803.569 182.522h-17.083v10.854h16.57v6.167h-16.57v13.487h17.083v6.167h-23.633v-42.838h23.633v6.167-.004ZM835.436 185.863a6.799 6.799 0 0 0-1.925-2.696c-1.35-1.091-2.763-1.541-4.625-1.541-3.984 0-6.038 2.375-6.038 5.137 0 1.283.45 3.533 4.625 5.2l4.304 1.733c7.9 3.213 10.084 7.709 10.084 12.588 0 8.154-5.78 13.742-13.809 13.742-4.946 0-7.9-1.863-10.083-4.305-2.313-2.57-3.338-5.395-3.596-8.35l6.488-1.412c0 2.121.77 4.108 1.8 5.458 1.22 1.542 3.016 2.571 5.587 2.571 3.983 0 7.063-2.892 7.063-7.192 0-4.3-3.338-6.166-6.167-7.32l-4.108-1.734c-3.534-1.475-8.734-4.433-8.734-10.854 0-5.779 4.496-11.304 12.525-11.304 4.625 0 7.259 1.733 8.604 2.892a14.624 14.624 0 0 1 3.275 4.304l-5.266 3.083h-.004Z"/></svg>